nColumns=19
nRows=77
DataType=double
version=3
OpenSimVersion=4.1
endheader
time	ground_force_calcn_r_vx	ground_force_calcn_r_vy	ground_force_calcn_r_vz	ground_force_calcn_r_px	ground_force_calcn_r_py	ground_force_calcn_r_pz	ground_force_calcn_r_mx	ground_force_calcn_r_my	ground_force_calcn_r_mz	ground_force_calcn_l_vx	ground_force_calcn_l_vy	ground_force_calcn_l_vz	ground_force_calcn_l_px	ground_force_calcn_l_py	ground_force_calcn_l_pz	ground_force_calcn_l_mx	ground_force_calcn_l_my	ground_force_calcn_l_mz
3.36	-0.836761	310.213	-41.3698	-0.26264	0	-0.410957	0.00250961	-0.930387	0.124076	-5.13547	292.573	39.5675	-0.243331	0	-0.786294	-0.0221404	1.26136	0.170586
3.37	-0.860909	311.236	-41.5693	-0.262041	0	-0.410671	0.0026706	-0.965474	0.128951	-5.26819	294.676	40.0492	-0.243074	0	-0.786515	-0.0235298	1.31614	0.178875
3.38	-0.797682	311.926	-41.7837	-0.261615	0	-0.410405	0.00256545	-1.0032	0.134382	-5.28882	296.648	40.5155	-0.243083	0	-0.786718	-0.0245492	1.37696	0.188062
3.39	-0.62044	312.327	-41.9959	-0.261386	0	-0.41017	0.00207059	-1.04233	0.140153	-5.18315	298.499	40.9484	-0.243366	0	-0.786894	-0.0250456	1.44238	0.197868
3.4	-0.311981	312.489	-42.1874	-0.261368	0	-0.40998	0.00107977	-1.08153	0.146011	-4.94768	300.243	41.3331	-0.243918	0	-0.787037	-0.0248954	1.51075	0.207977
3.41	0.135025	312.474	-42.341	-0.261571	0	-0.409844	-0.000483731	-1.11945	0.151688	-4.58967	301.888	41.6576	-0.244727	0	-0.787143	-0.0240237	1.58018	0.218049
3.42	0.718598	312.343	-42.4425	-0.261989	0	-0.409772	-0.00265673	-1.15476	0.156914	-4.12201	303.427	41.9134	-0.245767	0	-0.787209	-0.0223971	1.64868	0.227738
3.43	1.42749	312.152	-42.4801	-0.262608	0	-0.40977	-0.00542461	-1.18621	0.161429	-3.56049	304.843	42.0952	-0.247003	0	-0.787232	-0.0200227	1.71431	0.236726
3.44	2.23825	311.935	-42.4433	-0.2634	0	-0.409841	-0.00870068	-1.21258	0.164988	-2.92397	306.119	42.2012	-0.248393	0	-0.787213	-0.0169553	1.7751	0.244713
3.45	3.11342	311.705	-42.3205	-0.264322	0	-0.409983	-0.0123137	-1.2328	0.167379	-2.23608	307.252	42.2329	-0.249887	0	-0.787152	-0.0133125	1.82922	0.251433
3.46	4.00389	311.458	-42.1007	-0.265325	0	-0.410191	-0.016019	-1.2461	0.168439	-1.52644	308.254	42.1947	-0.251428	0	-0.787053	-0.00928475	1.87498	0.256653
3.47	4.85586	311.181	-41.7776	-0.266354	0	-0.410457	-0.0195367	-1.25198	0.168085	-0.827548	309.149	42.0942	-0.252959	0	-0.786921	-0.00511548	1.911	0.260205
3.48	5.62073	310.864	-41.3537	-0.267355	0	-0.410771	-0.0226088	-1.25042	0.166341	-0.170104	309.967	41.9427	-0.254425	0	-0.78676	-0.00106263	1.93635	0.262014
3.49	6.26179	310.505	-40.8409	-0.268282	0	-0.411116	-0.0250413	-1.24173	0.163326	0.41789	310.742	41.7539	-0.255777	0	-0.786583	0.00262351	1.95084	0.262131
3.5	6.75378	310.111	-40.2583	-0.269095	0	-0.411479	-0.0267091	-1.22639	0.159209	0.910004	311.501	41.5415	-0.25697	0	-0.786396	0.00571119	1.95498	0.260715
3.51	7.08181	309.691	-39.6302	-0.269763	0	-0.411841	-0.0275564	-1.20506	0.154208	1.28194	312.255	41.3177	-0.257974	0	-0.786209	0.00800481	1.94981	0.257999
3.52	7.24355	309.261	-38.9841	-0.270268	0	-0.412186	-0.0276076	-1.17869	0.148581	1.51402	313.011	41.0933	-0.258763	0	-0.786031	0.00936812	1.93679	0.254268
3.53	7.25072	308.84	-38.3471	-0.270606	0	-0.412498	-0.0269661	-1.1486	0.142616	1.59376	313.77	40.8787	-0.259325	0	-0.785871	0.00974114	1.91778	0.249853
3.54	7.1285	308.452	-37.7434	-0.270785	0	-0.412767	-0.0257996	-1.11636	0.136602	1.51825	314.534	40.6846	-0.259654	0	-0.785734	0.0091471	1.89499	0.245115
3.55	6.91235	308.13	-37.1933	-0.270824	0	-0.412986	-0.024312	-1.08375	0.130815	1.29717	315.305	40.5218	-0.25976	0	-0.785629	0.00769641	1.87078	0.240426
3.56	6.64054	307.907	-36.7122	-0.27075	0	-0.413147	-0.0227032	-1.0527	0.125515	0.953318	316.081	40.3992	-0.259663	0	-0.785558	0.00557251	1.84762	0.236149
3.57	6.3449	307.819	-36.3093	-0.270588	0	-0.413252	-0.0211301	-1.02511	0.120919	0.519611	316.85	40.3223	-0.259392	0	-0.785521	0.00299751	1.82783	0.23261
3.58	6.04845	307.894	-35.9885	-0.270365	0	-0.413302	-0.0196978	-1.00271	0.117203	0.0347165	317.588	40.2929	-0.258989	0	-0.785516	0.000198233	1.81345	0.230074
3.59	5.76867	308.157	-35.7505	-0.270103	0	-0.4133	-0.0184773	-0.987037	0.11451	-0.459919	318.264	40.308	-0.258503	0	-0.785534	-0.00260973	1.80594	0.228721
3.6	5.51745	308.624	-35.5956	-0.269824	0	-0.413253	-0.0175079	-0.979323	0.112952	-0.921181	318.849	40.3613	-0.257987	0	-0.78557	-0.0052186	1.80632	0.228652
3.61	5.29985	309.302	-35.5243	-0.269549	0	-0.413165	-0.0167972	-0.980293	0.11259	-1.30814	319.331	40.4444	-0.25749	0	-0.785612	-0.0074358	1.81516	0.229897
3.62	5.11472	310.189	-35.5367	-0.269287	0	-0.413044	-0.0163266	-0.990149	0.113436	-1.58904	319.721	40.5465	-0.257053	0	-0.785654	-0.00910868	1.83271	0.232421
3.63	4.95546	311.277	-35.6316	-0.269045	0	-0.412893	-0.0160561	-1.00856	0.115449	-1.74839	320.051	40.6554	-0.2567	0	-0.785688	-0.010154	1.85874	0.236112
3.64	4.81083	312.544	-35.8057	-0.268823	0	-0.412715	-0.0159261	-1.03467	0.118534	-1.78764	320.361	40.7571	-0.256437	0	-0.785706	-0.0105606	1.89255	0.240776
3.65	4.66687	313.962	-36.0542	-0.268615	0	-0.412515	-0.0158622	-1.06713	0.122544	-1.7186	320.685	40.8378	-0.256263	0	-0.785705	-0.0103597	1.93309	0.246171
3.66	4.51006	315.508	-36.3738	-0.268411	0	-0.412296	-0.0157849	-1.10425	0.127305	-1.55803	321.054	40.8851	-0.256167	0	-0.785683	-0.0096038	1.979	0.252019
3.67	4.33144	317.17	-36.7617	-0.268206	0	-0.412063	-0.0156258	-1.1442	0.132619	-1.32565	321.481	40.8893	-0.256131	0	-0.785636	-0.00836508	2.02861	0.258019
3.68	4.129	318.952	-37.2146	-0.267993	0	-0.411816	-0.0153409	-1.18503	0.138267	-1.04238	321.975	40.8431	-0.25614	0	-0.785565	-0.00673448	2.08019	0.263875
3.69	3.9072	320.871	-37.7295	-0.267772	0	-0.41156	-0.0149142	-1.2248	0.144018	-0.728784	322.532	40.741	-0.256174	0	-0.785471	-0.00481753	2.13206	0.269313
3.7	3.67486	322.951	-38.3032	-0.267544	0	-0.411298	-0.0143542	-1.26146	0.149614	-0.403664	323.144	40.5788	-0.256221	0	-0.785356	-0.00272641	2.18257	0.274076
3.71	3.44193	325.212	-38.9321	-0.267311	0	-0.411033	-0.0136841	-1.29295	0.154783	-0.0811799	323.796	40.3547	-0.256265	0	-0.785225	-0.000559147	2.23023	0.277953
3.72	3.2171	327.666	-39.6101	-0.267078	0	-0.410772	-0.0129345	-1.31739	0.159254	0.230843	324.469	40.0704	-0.256302	0	-0.785079	0.00161774	2.27387	0.280812
3.73	3.00664	330.314	-40.3279	-0.266846	0	-0.41052	-0.0121364	-1.33333	0.162785	0.529961	325.144	39.7306	-0.256333	0	-0.784921	0.00376944	2.31264	0.282591
3.74	2.81287	333.139	-41.0716	-0.266617	0	-0.410285	-0.0113119	-1.33971	0.165168	0.816722	325.796	39.342	-0.256362	0	-0.784751	0.00588077	2.34588	0.283281
3.75	2.63316	336.109	-41.8229	-0.266392	0	-0.410074	-0.0104672	-1.33608	0.166252	1.09089	326.404	38.9115	-0.256394	0	-0.784574	0.00793131	2.37312	0.282906
3.76	2.46059	339.173	-42.5599	-0.266169	0	-0.409892	-0.00959641	-1.32279	0.165986	1.34881	326.937	38.4449	-0.256435	0	-0.784386	0.00987678	2.39402	0.281515
3.77	2.28665	342.267	-43.2594	-0.265954	0	-0.409751	-0.00869139	-1.30093	0.164426	1.58453	327.365	37.9465	-0.256489	0	-0.78419	0.0116571	2.40836	0.279164
3.78	2.10558	345.319	-43.9004	-0.265754	0	-0.409656	-0.00775673	-1.27212	0.161724	1.79241	327.656	37.4198	-0.256558	0	-0.783983	0.0132175	2.41619	0.275939
3.79	1.91721	348.26	-44.4649	-0.265573	0	-0.40961	-0.00681613	-1.23815	0.158083	1.9679	327.787	36.8693	-0.256643	0	-0.783766	0.0145161	2.41791	0.271965
3.8	1.72558	351.027	-44.9389	-0.265419	0	-0.409616	-0.00590252	-1.20072	0.153718	2.10747	327.743	36.3025	-0.256742	0	-0.783539	0.0155243	2.41425	0.267415
3.81	1.53498	353.565	-45.3128	-0.265297	0	-0.409672	-0.00504189	-1.16135	0.148838	2.20769	327.522	35.7305	-0.256852	0	-0.783307	0.0162188	2.40614	0.262494
3.82	1.34783	355.831	-45.5822	-0.265211	0	-0.409776	-0.00424709	-1.12124	0.143632	2.2646	327.135	35.167	-0.256968	0	-0.783074	0.0165768	2.39463	0.257422
3.83	1.16527	357.779	-45.7469	-0.265163	0	-0.409926	-0.00352201	-1.08138	0.13827	2.27441	326.596	34.6271	-0.257085	0	-0.782847	0.0165804	2.38088	0.25243
3.84	0.989145	359.366	-45.8097	-0.265157	0	-0.410112	-0.0028693	-1.04244	0.132884	2.23433	325.923	34.1255	-0.257198	0	-0.782632	0.016221	2.36617	0.247749
3.85	0.824478	360.548	-45.7747	-0.265198	0	-0.410332	-0.00229756	-1.00473	0.127559	2.14256	325.131	33.6749	-0.257305	0	-0.782438	0.0154977	2.35176	0.24358
3.86	0.679665	361.291	-45.647	-0.265289	0	-0.410579	-0.00182151	-0.968265	0.122335	1.99868	324.235	33.2848	-0.257401	0	-0.782269	0.0144157	2.33859	0.240071
3.87	0.564488	361.578	-45.4336	-0.265437	0	-0.410848	-0.00145657	-0.932995	0.117234	1.80459	323.248	32.9622	-0.25749	0	-0.782133	0.0129928	2.32734	0.237323
3.88	0.488029	361.411	-45.144	-0.265647	0	-0.411135	-0.00121395	-0.898995	0.112294	1.56469	322.182	32.7102	-0.257571	0	-0.782031	0.0112598	2.31849	0.235389
3.89	0.457141	360.812	-44.7897	-0.265922	0	-0.411434	-0.00109779	-0.866464	0.107559	1.28555	321.052	32.5287	-0.257648	0	-0.781967	0.00925905	2.31234	0.234284
3.9	0.475714	359.825	-44.3839	-0.266265	0	-0.411742	-0.0011049	-0.835734	0.103087	0.974988	319.878	32.4154	-0.257726	0	-0.781943	0.00703756	2.30891	0.233977
3.91	0.545773	358.503	-43.9407	-0.266681	0	-0.412054	-0.00122919	-0.80742	0.0989632	0.641847	318.688	32.3671	-0.257811	0	-0.781959	0.00464818	2.30791	0.234399
3.92	0.669151	356.914	-43.4739	-0.267169	0	-0.412367	-0.00146683	-0.782382	0.095298	0.296704	317.521	32.3801	-0.257905	0	-0.782013	0.00215744	2.3088	0.235447
3.93	0.847774	355.127	-42.9953	-0.267731	0	-0.412681	-0.00181791	-0.761508	0.0921962	-0.0488971	316.42	32.4504	-0.258013	0	-0.782102	-0.000357124	2.311	0.237004
3.94	1.08254	353.202	-42.5143	-0.268364	0	-0.412992	-0.00228483	-0.745473	0.0897314	-0.384579	315.435	32.5738	-0.258136	0	-0.782225	-0.00282096	2.31377	0.238934
3.95	1.37401	351.19	-42.0378	-0.269066	0	-0.413302	-0.00287418	-0.734627	0.0879357	-0.702843	314.619	32.7457	-0.258274	0	-0.782373	-0.00517455	2.31633	0.241084
3.96	1.72353	349.134	-41.5718	-0.26983	0	-0.413613	-0.0035989	-0.729023	0.0868057	-0.99899	314.026	32.9613	-0.258423	0	-0.782542	-0.00737358	2.31784	0.243288
3.97	2.13297	347.076	-41.1213	-0.270652	0	-0.413924	-0.00447705	-0.728503	0.0863126	-1.27015	313.711	33.2162	-0.258579	0	-0.782728	-0.009383	2.31748	0.245378
3.98	2.6035	345.059	-40.69	-0.271524	0	-0.414236	-0.00552907	-0.732803	0.0864136	-1.51535	313.732	33.5083	-0.258737	0	-0.782926	-0.0111793	2.31451	0.247202
3.99	3.13376	343.128	-40.2796	-0.272435	0	-0.414551	-0.00677233	-0.741532	0.0870479	-1.73611	314.149	33.8383	-0.258893	0	-0.783132	-0.0127569	2.30837	0.248644
4	3.7189	341.332	-39.8911	-0.273378	0	-0.414871	-0.00821762	-0.754239	0.088147	-1.93585	315.015	34.2092	-0.259044	0	-0.783343	-0.0141261	2.2987	0.249629
4.01	4.3507	339.719	-39.5264	-0.274335	0	-0.415193	-0.0098667	-0.770429	0.0896396	-2.11928	316.37	34.6256	-0.259184	0	-0.783557	-0.0153089	2.28534	0.250122
4.02	5.01806	338.333	-39.1885	-0.275292	0	-0.415517	-0.0117083	-0.789408	0.0914358	-2.29152	318.24	35.0921	-0.259313	0	-0.78377	-0.0163332	2.26831	0.250125
4.03	5.70962	337.209	-38.8803	-0.276235	0	-0.415841	-0.0137191	-0.810245	0.0934215	-2.45736	320.625	35.6128	-0.259428	0	-0.78398	-0.0172284	2.24788	0.249679
4.04	6.41504	336.369	-38.6038	-0.277146	0	-0.416161	-0.0158647	-0.831858	0.0954691	-2.62078	323.509	36.1906	-0.259529	0	-0.784186	-0.0180211	2.22452	0.248855
4.05	7.12349	335.82	-38.3603	-0.278013	0	-0.416473	-0.0180939	-0.852991	0.0974362	-2.78412	326.853	36.8277	-0.259613	0	-0.784387	-0.0187292	2.19879	0.247746
4.06	7.82297	335.549	-38.1509	-0.278821	0	-0.416772	-0.020337	-0.872311	0.0991793	-2.94738	330.603	37.5249	-0.259682	0	-0.784586	-0.0193582	2.17138	0.246462
4.07	8.50112	335.529	-37.9775	-0.279559	0	-0.417055	-0.0225124	-0.888538	0.100571	-3.10765	334.692	38.2826	-0.259738	0	-0.784785	-0.0198992	2.14313	0.245135
4.08	9.14693	335.722	-37.8428	-0.280214	0	-0.417315	-0.0245374	-0.9006	0.101516	-3.25941	339.044	39.1001	-0.259784	0	-0.784987	-0.0203329	2.11503	0.243915
4.09	9.75074	336.078	-37.7502	-0.280779	0	-0.417545	-0.0263369	-0.90775	0.101964	-3.39707	343.578	39.9762	-0.259825	0	-0.785193	-0.0206452	2.08805	0.24295
4.1	10.3034	336.54	-37.703	-0.28125	0	-0.417742	-0.0278495	-0.909652	0.101909	-3.51653	348.214	40.9075	-0.259864	0	-0.785404	-0.020834	2.06303	0.242361
4.11	10.7952	337.04	-37.7042	-0.28162	0	-0.417899	-0.0290345	-0.906496	0.101408	-3.61553	352.871	41.8877	-0.259907	0	-0.785619	-0.020908	2.04059	0.242229
4.12	11.2174	337.504	-37.7559	-0.281892	0	-0.418016	-0.0298765	-0.89891	0.100559	-3.69371	357.473	42.9078	-0.259956	0	-0.78584	-0.0208844	2.02117	0.242603
